<?xml version="1.0" encoding="UTF-8"?>
<svg width="400px" height="400px" viewBox="0 0 400 400" version="1.1" xmlns="http://www.w3.org/2000/svg" xmlns:xlink="http://www.w3.org/1999/xlink">
    <title>SVG 2</title>
    <g id="SVG" stroke="none" stroke-width="1" fill="none" fill-rule="evenodd">
        <g id="海油logo">
            <rect id="矩形" x="0" y="0" width="400" height="400"></rect>
            <g id="编组" transform="translate(23.437500, 40.625000)">
                <path d="M10.9563246,234.569318 C20.0950953,246.05625 40.353257,273.490464 79.8104769,288.87864 C119.782435,304.467563 148.36536,299.781028 163.930255,297.410556 C179.495149,295.040083 195.503017,287.896966 212.892245,280.026256 C224.485063,274.779116 236.392532,272.10659 248.61465,272.008678 L248.27825,272.014639 C222.220973,301.626875 184.04042,320.3125 141.495606,320.3125 C83.3848948,320.3125 33.4161611,285.452551 11.3607037,235.503952 Z M-0.000553082893,188.622003 C12.742652,216.8554 34.6367087,245.395598 79.8104769,265.44114 C125.811951,285.853972 171.610779,269.225662 180.465634,266.355022 C186.595918,264.367656 198.967495,257.680598 211.770417,251.142011 L212.990861,250.519893 C218.283492,247.827335 223.618177,245.186278 228.586527,242.937504 C240.179346,237.690365 255.000334,234.353269 273.049491,232.926219 L272.72649,232.954465 C269.245243,241.276858 264.995404,249.197813 260.065709,256.628596 C252.05723,256.70723 233.060725,259.469527 206.876138,272.93444 C180.291695,286.604971 166.55208,291.213289 141.495606,292.753829 C116.439131,294.29437 84.4719427,286.230164 64.9880699,275.067115 C45.504197,263.904065 26.8005566,247.062868 14.2435567,227.861216 C2.43651978,209.806376 0.349272195,192.344816 0.032743829,188.956267 L0.032743829,188.956267 Z M141.495606,35.9375 C199.437737,35.9375 249.285062,70.5954836 271.437854,120.311724 L233.736718,120.311624 C221.200647,81.3319784 184.642173,53.125 141.495606,53.125 C87.9930207,53.125 44.6206059,96.4974149 44.6206059,150 C44.6206059,203.502585 87.9930207,246.875 141.495606,246.875 C179.875691,246.875 213.04288,224.555938 228.726063,192.188923 L282.996417,192.188127 C282.177103,200.533137 280.636352,208.666425 278.437364,216.524787 C270.410662,216.669753 255.095085,219.072681 231.581628,229.073221 C219.590753,234.173076 212.186344,238.873677 204.990683,243.444871 L203.824958,244.185054 C203.630744,244.308243 203.436511,244.431348 203.242171,244.554375 L202.074156,245.291634 C195.635422,249.341846 188.892153,253.318126 178.738472,257.411924 C152.133435,268.138639 106.069936,274.020383 65.1713243,251.546802 C24.2727127,229.073221 8.98973109,193.193351 5.25603405,184.388013 C2.04229745,176.80892 -0.0457114313,163.745652 1.80367258,151.483984 C14.2720295,85.6890433 72.0737699,35.9375 141.495606,35.9375 Z" id="形状结合" fill="#0061A7"></path>
                <path d="M150.870606,0 L161.997727,63.3087254 C191.591515,70.2808671 215.488287,92.0146376 225.490157,120.31215 L206.971974,120.311727 C198.912041,102.564113 183.848448,88.6719597 165.310076,82.1641489 L181.816305,176.097131 L189.933106,134.375 L209.464356,134.375 L199.05777,192.1875 L162.871448,192.1875 L141.49816,81.3819773 L122.276963,192.1875 L98.611306,192.1875 L117.801959,82.1218562 C89.7477157,91.9136482 69.6206059,118.606355 69.6206059,150 C69.6206059,189.695466 101.800139,221.875 141.495606,221.875 C165.428388,221.875 186.629127,210.177736 199.692605,192.188427 L219.952135,192.187446 C204.913925,220.09549 175.419757,239.0625 141.495606,239.0625 C92.3077453,239.0625 52.4331059,199.187861 52.4331059,150 C52.4331059,107.835351 81.7337983,72.5142452 121.084543,63.2873232 L132.120606,0 L150.870606,0 Z M258.683106,134.375 L250.870606,178.125 L207.120606,178.125 L214.933106,134.375 L258.683106,134.375 Z M307.120606,134.375 L299.308106,178.125 L255.558106,178.125 L263.370606,134.375 L307.120606,134.375 Z M352.433106,134.375 L349.782606,149.218 L324.33178,149.21875 L321.964356,163.28125 L347.271606,163.281 L344.620606,178.125 L303.995606,178.125 L311.808106,134.375 L352.433106,134.375 Z M240.714356,149.21875 L227.45678,149.21875 L225.089356,163.28125 L238.346932,163.28125 L240.714356,149.21875 Z M289.151856,149.21875 L275.89428,149.21875 L273.526856,163.28125 L286.784432,163.28125 L289.151856,149.21875 Z" id="形状结合" fill="#DD002B"></path>
            </g>
        </g>
    </g>
</svg>