<?xml version="1.0" encoding="UTF-8"?>
<svg width="16px" height="16px" viewBox="0 0 16 16" version="1.1" xmlns="http://www.w3.org/2000/svg" xmlns:xlink="http://www.w3.org/1999/xlink">
    <title>加号</title>
    <g id="页面-1" stroke="none" stroke-width="1" fill="none" fill-rule="evenodd">
        <g id="metabase-首页" transform="translate(-1304.000000, -24.000000)" fill-rule="nonzero">
            <g id="首页备份" transform="translate(380.000000, 16.000000)">
                <g id="编组备份" transform="translate(912.000000, 0.000000)">
                    <g id="folder-add-filled" transform="translate(12.000000, 8.000000)">
                        <rect id="矩形" fill="#000000" opacity="0" x="0" y="0" width="16" height="16"></rect>
                        <path d="M13.75,4.6625 L8.140625,4.6625 L6.3078125,2.909375 C6.284375,2.8875 6.253125,2.875 6.221875,2.875 L2.25,2.875 C1.9734375,2.875 1.75,3.0984375 1.75,3.375 L1.75,12.625 C1.75,12.9015625 1.9734375,13.125 2.25,13.125 L13.75,13.125 C14.0265625,13.125 14.25,12.9015625 14.25,12.625 L14.25,5.1625 C14.25,4.8859375 14.0265625,4.6625 13.75,4.6625 Z M9.875,9.015625 C9.875,9.075 9.821875,9.125 9.7578125,9.125 L8.4375,9.125 L8.4375,10.4515625 C8.4375,10.5125 8.3875,10.5625 8.328125,10.5625 L7.671875,10.5625 C7.6125,10.5625 7.5625,10.5125 7.5625,10.4515625 L7.5625,9.125 L6.2421875,9.125 C6.178125,9.125 6.125,9.075 6.125,9.015625 L6.125,8.359375 C6.125,8.3 6.178125,8.25 6.2421875,8.25 L7.5625,8.25 L7.5625,6.9234375 C7.5625,6.8625 7.6125,6.8125 7.671875,6.8125 L8.328125,6.8125 C8.3875,6.8125 8.4375,6.8625 8.4375,6.9234375 L8.4375,8.25 L9.7578125,8.25 C9.821875,8.25 9.875,8.3 9.875,8.359375 L9.875,9.015625 Z" id="形状" fill="#F5F6FA"></path>
                    </g>
                </g>
            </g>
        </g>
    </g>
</svg>